<?xml version="1.0" standalone="no"?><!DOCTYPE svg PUBLIC "-//W3C//DTD SVG 1.1//EN" "http://www.w3.org/Graphics/SVG/1.1/DTD/svg11.dtd"><svg width="200" height="200" viewBox="0 0 200 200" version="1.1" xmlns="http://www.w3.org/2000/svg" xmlns:xlink="http://www.w3.org/1999/xlink"><defs><style type="text/css"><![CDATA[
@font-face { font-family: ifont; src: url("//at.alicdn.com/t/font_1442373896_4754455.eot?#iefix") format("embedded-opentype"), url("//at.alicdn.com/t/font_1442373896_4754455.woff") format("woff"), url("//at.alicdn.com/t/font_1442373896_4754455.ttf") format("truetype"), url("//at.alicdn.com/t/font_1442373896_4754455.svg#ifont") format("svg"); }

]]></style></defs><g class="transform-group"><g transform="scale(0.1953125, 0.1953125)"><path d="M510.880768 773.1968c-44.54912 0-149.274624-111.919104-149.274624-111.919104s-161.569792 24.809472-217.636864 62.179328c-56.064 37.371904-80.837632 235.392-80.837632 235.392l897.024 0c0 0-16.408576-191.410176-82.397184-235.392-56.068096-37.369856-217.639936-62.179328-217.639936-62.179328S555.322368 773.1968 510.880768 773.1968zM514.353152 86.192128c125.812736 0 227.774464 116.438016 227.774464 260.06016 0 143.619072-101.960704 260.057088-227.774464 260.057088-125.776896 0-227.774464-116.438016-227.774464-260.057088C286.579712 202.631168 388.57728 86.192128 514.353152 86.192128z" fill="#272636"></path></g></g></svg>