<?xml version="1.0" encoding="utf-8"?>
<!DOCTYPE svg PUBLIC "-//W3C//DTD SVG 1.1//EN" "http://www.w3.org/Graphics/SVG/1.1/DTD/svg11.dtd">
<svg version="1.1" id="图形" xmlns="http://www.w3.org/2000/svg" xmlns:xlink="http://www.w3.org/1999/xlink" x="0px" y="0px" width="1024px" height="1024px" viewBox="0 0 1024 1024" enable-background="new 0 0 1024 1024" xml:space="preserve">
  <path fill="#272636" d="M153.341 506.874C174.169 495.79 462.6 314.457 473.333 308.75c10.742-5.712 24.651-8.467 38.667-8.467 14.017 0 27.926 2.755 38.667 8.467 10.735 5.707 299.16 187.04 319.994 198.124C891.5 517.948 911.226 556 872.933 556L151.062 556C112.799 556 132.5 517.948 153.341 506.874zM879.482 438.605c-23.666-12.223-314.324-187.649-328.817-195.126-14.499-7.493-24.649-8.467-38.667-8.467-14.016 0-24.165 0.974-38.667 8.467-14.491 7.477-305.133 182.903-328.817 195.126-16.657 8.593-16.516-1.485-16.516-9.27 0-7.787 0-344.84 0-344.84C128 66.797 151.825 44 170.316 44l683.367 0C872.175 44 896 66.797 896 84.496c0 0 0 337.053 0 344.84C896 437.12 896.157 447.199 879.482 438.605z" transform="translate(0, 812) scale(1, -1)"/>
</svg>
