<?xml version="1.0" encoding="utf-8"?>
<!DOCTYPE svg PUBLIC "-//W3C//DTD SVG 1.1//EN" "http://www.w3.org/Graphics/SVG/1.1/DTD/svg11.dtd">
<svg version="1.1" id="图形" xmlns="http://www.w3.org/2000/svg" xmlns:xlink="http://www.w3.org/1999/xlink" x="0px" y="0px" width="1024px" height="1024px" viewBox="0 0 1024 1024" enable-background="new 0 0 1024 1024" xml:space="preserve">
  <path fill="#272636" d="M512.46592 747.408128c-197.216256 0-357.791744-159.056896-357.791744-354.630656 0-33.906688 5.056512-67.731456 14.695424-100.734976 44.480512-177.87392 270.907392-378.620928 344.713216-440.144896 74.708992 62.246912 304.21504 265.554944 345.238528 441.901056l-0.64 0.147456 5.704704 36.21376c3.933184 21.05856 5.59104 42.190848 5.59104 62.616576C869.977088 588.351232 709.632 747.408128 512.46592 747.408128zM517.735424 304.775936c-89.765888 0-162.939904 72.27904-162.939904 161.010688 0 89.05216 73.174016 161.49504 162.939904 161.49504 89.708544 0 162.78528-72.443904 162.78528-161.49504C680.520704 377.054976 607.444992 304.775936 517.735424 304.775936z" transform="translate(0, 812) scale(1, -1)"/>
</svg>
