<?xml version="1.0" encoding="utf-8"?>
<!DOCTYPE svg PUBLIC "-//W3C//DTD SVG 1.1//EN" "http://www.w3.org/Graphics/SVG/1.1/DTD/svg11.dtd">
<svg version="1.1" id="图形" xmlns="http://www.w3.org/2000/svg" xmlns:xlink="http://www.w3.org/1999/xlink" x="0px" y="0px" width="1000px" height="1024px" viewBox="0 0 1000 1024" enable-background="new 0 0 1000 1024" xml:space="preserve">
  <path fill="#272636" d="M872 675q28 0 47.5 -19.5t19.5 -47.5v-51q0 -28 -19.5 -47.5t-47.5 -19.5h-742q-28 0 -47.5 19.5t-19.5 47.5v51q0 28 19.5 47.5t47.5 19.5h742zM872 362q28 0 47.5 -19.5t19.5 -47.5v-51q0 -28 -19.5 -47.5t-47.5 -19.5h-742q-28 0 -47.5 19.5t-19.5 47.5v51 q0 28 19.5 47.5t47.5 19.5h742zM872 49q28 0 47.5 -19.5t19.5 -47.5v-51q0 -28 -19.5 -47.5t-47.5 -19.5h-742q-28 0 -47.5 19.5t-19.5 47.5v51q0 28 19.5 47.5t47.5 19.5h742z" transform="translate(0, 812) scale(1, -1)"/>
</svg>
