<?xml version="1.0" encoding="utf-8"?>
<!DOCTYPE svg PUBLIC "-//W3C//DTD SVG 1.1//EN" "http://www.w3.org/Graphics/SVG/1.1/DTD/svg11.dtd">
<svg version="1.1" id="图形" xmlns="http://www.w3.org/2000/svg" xmlns:xlink="http://www.w3.org/1999/xlink" x="0px" y="0px" width="1000px" height="1024px" viewBox="0 0 1000 1024" enable-background="new 0 0 1000 1024" xml:space="preserve">
  <path fill="#272636" d="M183 731q28 0 47.5 -19t19.5 -47v-51q0 -28 -19.5 -47.5t-47.5 -19.5h-53q-27 0 -46.5 19.5t-19.5 47.5v51q0 28 19.5 47t46.5 19h53zM869 731q27 0 46.5 -19t19.5 -47v-51q0 -28 -19.5 -47.5t-46.5 -19.5h-427q-28 0 -47.5 19.5t-19.5 47.5v51q0 28 19.5 47t47.5 19h427 zM183 420q28 0 47.5 -19.5t19.5 -47.5v-51q0 -27 -19.5 -46.5t-47.5 -19.5h-53q-27 0 -46.5 19.5t-19.5 46.5v51q0 28 19.5 47.5t46.5 19.5h53zM869 420q27 0 46.5 -19.5t19.5 -47.5v-51q0 -27 -19.5 -46.5t-46.5 -19.5h-427q-28 0 -47.5 19.5t-19.5 46.5v51q0 28 19.5 47.5 t47.5 19.5h427zM183 108q28 0 47.5 -19.5t19.5 -46.5v-51q0 -28 -19.5 -47.5t-47.5 -19.5h-53q-27 0 -46.5 19.5t-19.5 47.5v51q0 27 19.5 46.5t46.5 19.5h53zM869 108q27 0 46.5 -19.5t19.5 -46.5v-51q0 -28 -19.5 -47.5t-46.5 -19.5h-427q-28 0 -47.5 19.5t-19.5 47.5v51 q0 27 19.5 46.5t47.5 19.5h427z" transform="translate(0, 812) scale(1, -1)"/>
</svg>
